<svg id="Camada_1" data-name="Camada 1" xmlns="http://www.w3.org/2000/svg" viewBox="0 0 599.18 326.4"><defs><style>.cls-1{fill:#7d353b;}.cls-2{fill:#fed2d2;}.cls-3{fill:#fee9e9;}.cls-4{fill:#fe4b4b;}.cls-5{fill:#bc4043;}</style></defs><path class="cls-1" d="M211,55.63Q272,23.46,333.06-8.73c19.24-10.15,38.45-20.38,57.71-30.5,6.91-3.62,8.6-3.32,14.13,1.69v8c-1.83,10.24-6.57,19.48-10.29,29Q367.48,69,340.3,138.53C332,159.76,323.65,181,315.48,202.26c-.65,1.7-1.1,3.54-3,4.43-3.2.06-3.94-2.77-5.23-4.72-19-28.74-38.69-57.08-57.66-85.88-12-18.22-24.59-36-36.51-54.32C212,60,209.62,58.38,211,55.63Z" transform="translate(194.29 91.1)"/><path class="cls-2" d="M86,235.3c0-.27,0-.54,0-.81a4.56,4.56,0,0,1,4-1.65c10.73-.17,21.45-.33,32.18.08a5.52,5.52,0,0,1,2.35.73,1.2,1.2,0,0,1,.55,1.65Z" transform="translate(194.29 91.1)"/><path class="cls-3" d="M125,235.3c0-.29,0-.57,0-.86,3-2.28,6-2.29,9,0a8,8,0,0,0,0,.85Z" transform="translate(194.29 91.1)"/><path class="cls-4" d="M134,234.45h-9L86,234.49c-27.64-.32-55.25-1.47-82.84-3.11-25.6-1.51-51.11-3.88-76.6-6.51-14.15-1.46-23.86-8.63-29.29-22.67-29.76-76.85-60-153.5-90.14-230.21-1.62-4.13-2.46-8,1.33-11.41s7.66-2.06,11.52,0L-3.24,54.05c1.3.69,2.52,1.7,4.16,1.38,9.74,3.55,18.41,9.25,27.54,14,14.47,7.52,28.85,15.22,43.26,22.86Q122,119,172.36,145.53,202.14,161.29,232,177q34.92,18.35,69.75,36.87c1.17.62,2.41,1.18,3,2.52-5.52,5.59-12.42,7.93-20.07,8.68C234.55,230,184.36,233.55,134,234.45Z" transform="translate(194.29 91.1)"/><path class="cls-5" d="M304.72,216.36c-11.57-5.1-22.42-11.56-33.59-17.43q-49.89-26.19-99.73-52.43-34.18-18-68.31-36.12Q53.53,84.15,4,57.87c-1.17-.63-2.42-1.14-3.06-2.44Q23.77,21.2,46.61-13c15.73-23.51,31.9-46.72,47.12-70.55,7-11,17.69-9,23.67.13C147.28-38,177.86,7,208.21,52.15c.83,1.23,1.84,2.32,2.76,3.48,5.27,9.61,11.84,18.38,17.89,27.47q22.5,33.78,45.2,67.41c12.62,18.69,25.37,37.3,38.06,56A24.4,24.4,0,0,1,304.72,216.36Z" transform="translate(194.29 91.1)"/></svg>