<svg xmlns="http://www.w3.org/2000/svg" xmlns:xlink="http://www.w3.org/1999/xlink" viewBox="0 0 66 37" fill="#fff" fill-rule="evenodd" stroke="#000" stroke-linecap="round" stroke-linejoin="round"><use xlink:href="#A" x=".5" y=".5"/><symbol id="A" overflow="visible"><g stroke="none"><path d="M51.328 34.147L37.8 26.845V16.322l13.53 6.443z" fill="#000"/><path d="M50.9 32.43l-12.026-6.442V17.61l12.026 5.8z" fill="#952781"/><path d="M51.972 23.194L37.8 16.322l12.885-5.584 13.1 6.228z" fill="#000"/><path d="M51.543 22.335l-11.597-5.798 10.524-4.5 11.167 5.155z" fill="#952781"/><path d="M63.785 16.966l-12.67 6.014.214 11.168L64 27.91z" fill="#000"/><path d="M62.7 18.04l-10.3 5.37v9.02l10.3-5.154z" fill="#952781"/><path d="M32 23.194l-13.53-7.302V5.37L32 11.812z" fill="#000"/><path d="M31.57 21.69l-12.026-6.658V6.656l12.026 5.8z" fill="#6483c0"/><path d="M32.644 12.24L18.47 5.37 31.354 0l13.1 6.014z" fill="#000"/><path d="M32.215 11.382l-11.598-5.8 10.524-4.5 11.168 5.154z" fill="#6483c0"/><path d="M44.456 6.014l-12.67 6.013L32 23.194l12.672-6.228z" fill="#000"/><path d="M43.382 7.302l-10.3 5.155v9.02l10.3-5.154z" fill="#6483c0"/><path d="M13.53 33.504L0 26.21V15.678l13.315 6.432z" fill="#000"/><path d="M13.1 31.786L1.074 25.342v-8.376l12.027 5.8z" fill="#d87b30"/><path d="M13.96 22.55L0 15.678l12.885-5.584 13.1 6.228z" fill="#000"/><path d="M13.744 21.69l-11.812-5.8 10.738-4.5 11.168 5.154z" fill="#d87b30"/><path d="M25.986 16.322l-12.67 6.013.215 11.17 12.672-6.23z" fill="#000"/><path d="M24.698 17.395l-10.3 5.37.215 9.02 10.3-5.155z" fill="#d87b30"/><path d="M33.074 35.21l-13.53-7.516V17.18l13.314 6.443z" fill="#000"/><path d="M32.644 33.504L20.617 27.06v-8.6l12.028 5.8z" fill="#e0d400"/><path d="M33.503 24.053l-13.96-6.872 12.885-5.37 13.1 6.013z" fill="#000"/><path d="M33.074 23.194L21.476 17.61l10.738-4.5 11.168 5.154z" fill="#e0d400"/><path d="M45.53 17.825l-12.67 6.013.215 11.382 12.456-6.442z" fill="#000"/><path d="M44.24 19.114l-10.3 5.155.214 9.02 10.3-4.94z" fill="#e0d400"/></g></symbol></svg>